Hawaii.Five-0.2010.S03E03.HDTV.Xvid-MrX
 
http://www.cbs.com/shows/hawaii_five_0/



General
Complete name                            : Hawaii.Five-0.2010.S03E03.HDTV.Xvid-MrX.avi
Format                                   : AVI
Format/Info                              : Audio Video Interleave
File size                                : 349 MiB
Duration                                 : 40mn 58s
Overall bit rate mode                    : Variable
Overall bit rate                         : 1 190 Kbps

Video
ID                                       : 0
Format                                   : MPEG-4 Visual
Format profile                           : Advanced Simple@L5
Format settings, BVOP                    : 1
Format settings, QPel                    : No
Format settings, GMC                     : No warppoints
Format settings, Matrix                  : Default (H.263)
Muxing mode                              : Packed bitstream
Codec ID                                 : XVID
Codec ID/Hint                            : XviD
Duration                                 : 40mn 58s
Bit rate                                 : 1 026 Kbps
Width                                    : 640 pixels
Height                                   : 352 pixels
Display aspect ratio                     : 16:9
Frame rate                               : 23.976 fps
Color space                              : YUV
Chroma subsampling                       : 4:2:0
Bit depth                                : 8 bits
Scan type                                : Progressive
Compression mode                         : Lossy
Bits/(Pixel*Frame)                       : 0.190
Stream size                              : 301 MiB (86%)
Writing library                          : XviD 1.2.1 (UTC 2008-12-04)

Audio
ID                                       : 1
Format                                   : MPEG Audio
Format version                           : Version 1
Format profile                           : Layer 3
Codec ID                                 : 55
Codec ID/Hint                            : MP3
Duration                                 : 40mn 58s
Bit rate mode                            : Variable
Bit rate                                 : 151 Kbps
Minimum bit rate                         : 128 Kbps
Channel(s)                               : 2 channels
Sampling rate                            : 48.0 KHz
Compression mode                         : Lossy
Stream size                              : 44.2 MiB (13%)
Alignment                                : Aligned on interleaves
Interleave, duration                     : 24 ms (0.58 video frame)
Interleave, preload duration             : 56 ms
Title                                    : Hawaii.Five-0.2010.S03E03
Writing library                          : LAME3.99r
Encoding settings                        : -m s -V 4 -q 0 -lowpass 17.5 --vbr-mt -b 128
